<svg width="32" height="32" viewBox="0 0 32 32" fill="none" xmlns="http://www.w3.org/2000/svg">
<path fill-rule="evenodd" clip-rule="evenodd" d="M16 1C7.52835 1 0.666687 7.86167 0.666687 16.3333C0.666687 23.1183 5.05585 28.8492 11.1509 30.8808C11.9175 31.015 12.205 30.555 12.205 30.1525C12.205 29.7883 12.1859 28.5808 12.1859 27.2967C8.33335 28.0058 7.33669 26.3575 7.03002 25.495C6.85752 25.0542 6.11002 23.6933 5.45835 23.3292C4.92169 23.0417 4.15502 22.3325 5.43919 22.3133C6.64669 22.2942 7.50919 23.425 7.79669 23.885C9.17669 26.2042 11.3809 25.5525 12.2625 25.15C12.3967 24.1533 12.7992 23.4825 13.24 23.0992C9.82835 22.7158 6.26335 21.3933 6.26335 15.5283C6.26335 13.8608 6.85752 12.4808 7.83502 11.4075C7.68169 11.0242 7.14502 9.4525 7.98835 7.34417C7.98835 7.34417 9.27252 6.94167 12.205 8.91583C13.4317 8.57083 14.735 8.39833 16.0384 8.39833C17.3417 8.39833 18.645 8.57083 19.8717 8.91583C22.8042 6.9225 24.0884 7.34417 24.0884 7.34417C24.9317 9.4525 24.395 11.0242 24.2417 11.4075C25.2192 12.4808 25.8134 13.8417 25.8134 15.5283C25.8134 21.4125 22.2292 22.7158 18.8175 23.0992C19.3734 23.5783 19.8525 24.4983 19.8525 25.9358C19.8525 27.9867 19.8334 29.635 19.8334 30.1525C19.8334 30.555 20.1209 31.0342 20.8875 30.8808C26.9442 28.8492 31.3334 23.0992 31.3334 16.3333C31.3334 7.86167 24.4717 1 16 1V1Z" fill="white"/>
</svg>
