<svg width="26" height="27" viewBox="0 0 26 27" fill="none" xmlns="http://www.w3.org/2000/svg">
<path d="M3.33333 0.5C1.76853 0.5 0.5 1.76853 0.5 3.33333C0.5 4.89814 1.76853 6.16667 3.33333 6.16667C4.89814 6.16667 6.16667 4.89814 6.16667 3.33333C6.16667 1.76853 4.89814 0.5 3.33333 0.5Z" fill="black"/>
<path d="M0.666667 8.5C0.574619 8.5 0.5 8.57462 0.5 8.66667V26C0.5 26.092 0.574619 26.1667 0.666667 26.1667H6C6.09205 26.1667 6.16667 26.092 6.16667 26V8.66667C6.16667 8.57462 6.09205 8.5 6 8.5H0.666667Z" fill="black"/>
<path d="M9.33333 8.5C9.24129 8.5 9.16667 8.57462 9.16667 8.66667V26C9.16667 26.092 9.24129 26.1667 9.33333 26.1667H14.6667C14.7587 26.1667 14.8333 26.092 14.8333 26V16.6667C14.8333 16.0036 15.0967 15.3677 15.5656 14.8989C16.0344 14.4301 16.6703 14.1667 17.3333 14.1667C17.9964 14.1667 18.6323 14.4301 19.1011 14.8989C19.5699 15.3677 19.8333 16.0036 19.8333 16.6667V26C19.8333 26.092 19.908 26.1667 20 26.1667H25.3333C25.4254 26.1667 25.5 26.092 25.5 26V14.507C25.5 11.2713 22.6859 8.73999 19.4665 9.03266C18.4736 9.12292 17.4919 9.36974 16.5753 9.76259L14.8333 10.5091V8.66667C14.8333 8.57462 14.7587 8.5 14.6667 8.5H9.33333Z" fill="black"/>
</svg>
