<?xml version="1.0" standalone="no"?>
<!DOCTYPE svg PUBLIC "-//W3C//DTD SVG 20010904//EN"
 "http://www.w3.org/TR/2001/REC-SVG-20010904/DTD/svg10.dtd">
<svg version="1.0" xmlns="http://www.w3.org/2000/svg"
 width="50.000000pt" height="50.000000pt" viewBox="0 0 50.000000 50.000000"
 preserveAspectRatio="xMidYMid meet">

<g transform="translate(0.000000,50.000000) scale(0.100000,-0.100000)"
fill="#fff" stroke="none">
<path d="M60 440 c-11 -11 -20 -29 -20 -40 0 -26 34 -60 60 -60 26 0 60 34 60
60 0 26 -34 60 -60 60 -11 0 -29 -9 -40 -20z m70 -15 c15 -18 10 -45 -12 -59
-35 -22 -74 27 -48 59 16 19 44 19 60 0z"/>
<path d="M210 440 c-11 -11 -20 -29 -20 -40 0 -26 34 -60 60 -60 26 0 60 34
60 60 0 11 -9 29 -20 40 -11 11 -29 20 -40 20 -11 0 -29 -9 -40 -20z m70 -15
c15 -18 10 -45 -12 -59 -35 -22 -74 27 -48 59 16 19 44 19 60 0z"/>
<path d="M360 440 c-11 -11 -20 -29 -20 -40 0 -11 9 -29 20 -40 11 -11 29 -20
40 -20 26 0 60 34 60 60 0 11 -9 29 -20 40 -11 11 -29 20 -40 20 -11 0 -29 -9
-40 -20z m70 -15 c15 -18 10 -45 -12 -59 -35 -22 -74 27 -48 59 16 19 44 19
60 0z"/>
<path d="M60 290 c-11 -11 -20 -29 -20 -40 0 -26 34 -60 60 -60 26 0 60 34 60
60 0 26 -34 60 -60 60 -11 0 -29 -9 -40 -20z m70 -15 c26 -32 -13 -81 -47 -59
-23 14 -28 41 -13 59 16 19 44 19 60 0z"/>
<path d="M210 290 c-11 -11 -20 -29 -20 -40 0 -26 34 -60 60 -60 26 0 60 34
60 60 0 11 -9 29 -20 40 -11 11 -29 20 -40 20 -11 0 -29 -9 -40 -20z m70 -15
c26 -32 -13 -81 -47 -59 -23 14 -28 41 -13 59 16 19 44 19 60 0z"/>
<path d="M360 290 c-11 -11 -20 -29 -20 -40 0 -11 9 -29 20 -40 11 -11 29 -20
40 -20 26 0 60 34 60 60 0 11 -9 29 -20 40 -11 11 -29 20 -40 20 -11 0 -29 -9
-40 -20z m70 -15 c15 -18 10 -45 -12 -59 -35 -22 -74 27 -48 59 16 19 44 19
60 0z"/>
<path d="M60 140 c-11 -11 -20 -29 -20 -40 0 -26 34 -60 60 -60 26 0 60 34 60
60 0 26 -34 60 -60 60 -11 0 -29 -9 -40 -20z m70 -15 c26 -32 -13 -81 -47 -59
-10 6 -19 19 -21 28 -8 38 43 61 68 31z"/>
<path d="M210 140 c-11 -11 -20 -29 -20 -40 0 -26 34 -60 60 -60 26 0 60 34
60 60 0 26 -34 60 -60 60 -11 0 -29 -9 -40 -20z m70 -15 c26 -32 -13 -81 -47
-59 -10 6 -19 19 -21 28 -8 38 43 61 68 31z"/>
<path d="M360 140 c-11 -11 -20 -29 -20 -40 0 -11 9 -29 20 -40 11 -11 29 -20
40 -20 26 0 60 34 60 60 0 26 -34 60 -60 60 -11 0 -29 -9 -40 -20z m70 -15
c15 -18 10 -45 -12 -59 -35 -22 -74 27 -48 59 16 19 44 19 60 0z"/>
</g>
</svg>
